<svg width="6" height="15" viewBox="0 0 6 15" fill="none" xmlns="http://www.w3.org/2000/svg">
<path d="M5.36263 1.20793C5.29765 0.939544 5.0274 0.774651 4.75901 0.839632C4.49063 0.904613 4.32573 1.17486 4.39071 1.44325L5.36263 1.20793ZM4.94858 7.74077L5.43592 7.85258L4.94858 7.74077ZM0.536396 12.0571C0.43247 12.3129 0.55562 12.6046 0.81146 12.7085L4.98061 14.4021C5.23645 14.506 5.5281 14.3829 5.63202 14.127C5.73595 13.8712 5.6128 13.5795 5.35696 13.4756L1.65105 11.9702L3.15645 8.26431C3.26038 8.00847 3.13723 7.71682 2.88139 7.6129C2.62555 7.50897 2.3339 7.63212 2.22997 7.88796L0.536396 12.0571ZM4.87667 1.32559C4.39071 1.44325 4.39069 1.44316 4.39067 1.44308C4.39067 1.44308 4.39066 1.44301 4.39065 1.44299C4.39064 1.44296 4.39065 1.44297 4.39066 1.44303C4.39069 1.44316 4.39077 1.44348 4.39089 1.444C4.39114 1.44503 4.39157 1.44685 4.39218 1.44943C4.39339 1.4546 4.39531 1.46284 4.39786 1.47404C4.40296 1.49645 4.41058 1.53073 4.42018 1.57603C4.43938 1.66666 4.46645 1.80132 4.49692 1.9734C4.55792 2.3178 4.63234 2.81074 4.68488 3.3996C4.7904 4.58221 4.8055 6.12847 4.46124 7.62896L5.43592 7.85258C5.81239 6.21168 5.79153 4.55035 5.68092 3.31072C5.6254 2.68846 5.5467 2.16662 5.4816 1.79901C5.44903 1.61509 5.4198 1.46944 5.39847 1.36876C5.3878 1.31841 5.3791 1.27928 5.37294 1.25221C5.36986 1.23867 5.36742 1.22814 5.36567 1.22073C5.3648 1.21702 5.36411 1.21409 5.3636 1.21196C5.36334 1.21089 5.36313 1.21002 5.36297 1.20935C5.36289 1.20901 5.36282 1.20872 5.36277 1.20849C5.36274 1.20837 5.36271 1.20823 5.36269 1.20817C5.36266 1.20805 5.36263 1.20793 4.87667 1.32559ZM4.46124 7.62896C4.1345 9.05306 3.23509 10.0909 2.38736 10.7839C1.96562 11.1287 1.5645 11.3816 1.26985 11.5476C1.12284 11.6304 1.00321 11.6912 0.921911 11.7305C0.881289 11.7502 0.850319 11.7645 0.830377 11.7735C0.820409 11.778 0.813206 11.7811 0.808939 11.783C0.806806 11.7839 0.805408 11.7845 0.804767 11.7848C0.804446 11.785 0.804315 11.785 0.804375 11.785C0.804406 11.785 0.804484 11.7849 0.80461 11.7849C0.804674 11.7849 0.804805 11.7848 0.804837 11.7848C0.80498 11.7847 0.805136 11.7847 0.999635 12.2453C1.19413 12.7059 1.19431 12.7058 1.19451 12.7057C1.19459 12.7057 1.19479 12.7056 1.19495 12.7056C1.19528 12.7054 1.19565 12.7053 1.19607 12.7051C1.19691 12.7047 1.19795 12.7043 1.19919 12.7037C1.20166 12.7027 1.2049 12.7013 1.2089 12.6995C1.21689 12.6961 1.2279 12.6912 1.24175 12.6849C1.26945 12.6724 1.30854 12.6544 1.3576 12.6306C1.45566 12.5832 1.59386 12.5129 1.76076 12.4188C2.09392 12.2311 2.5449 11.9468 3.0203 11.5581C3.96686 10.7843 5.04192 9.56986 5.43592 7.85258L4.46124 7.62896Z" fill="#D77A61"/>
</svg>
