<svg width="45" height="45" viewBox="0 0 45 45" fill="none" xmlns="http://www.w3.org/2000/svg">
<g clip-path="url(#clip0_168_293)">
<path d="M22 37C24.7689 37 27.4757 36.1789 29.778 34.6406C32.0803 33.1022 33.8747 30.9157 34.9343 28.3576C35.9939 25.7994 36.2712 22.9845 35.731 20.2687C35.1908 17.553 33.8574 15.0584 31.8995 13.1005C29.9416 11.1426 27.447 9.80921 24.7313 9.26901C22.0155 8.72882 19.2006 9.00607 16.6424 10.0657C14.0843 11.1253 11.8978 12.9197 10.3594 15.222C8.82108 17.5243 7.99999 20.2311 7.99999 23C8.00423 26.7117 9.48059 30.2702 12.1052 32.8948C14.7298 35.5194 18.2883 36.9958 22 37ZM22 11C24.3734 11 26.6934 11.7038 28.6668 13.0224C30.6402 14.3409 32.1783 16.2151 33.0865 18.4078C33.9948 20.6005 34.2324 23.0133 33.7694 25.3411C33.3064 27.6689 32.1635 29.8071 30.4853 31.4853C28.807 33.1635 26.6688 34.3064 24.3411 34.7694C22.0133 35.2325 19.6005 34.9948 17.4078 34.0866C15.2151 33.1783 13.3409 31.6402 12.0224 29.6668C10.7038 27.6935 9.99999 25.3734 9.99999 23C10.0037 19.8185 11.2692 16.7685 13.5188 14.5188C15.7684 12.2692 18.8185 11.0037 22 11Z" fill="#295554"/>
<path d="M20.9993 16L19.748 17.393L25.5 24L19.748 30.573L20.9993 32L27.9993 24L20.9993 16Z" fill="#295554"/>
</g>
<defs>
<clipPath id="clip0_168_293">
<rect width="32" height="32" fill="white" transform="matrix(-1 0 0 1 38 7)"/>
</clipPath>
</defs>
</svg>
