<svg width="45" height="45" viewBox="0 0 45 45" fill="none" xmlns="http://www.w3.org/2000/svg">
<path d="M25.0007 14L26.252 15.393L20.5 22L26.252 28.573L25.0007 30L18.0007 22L25.0007 14Z" fill="#295554"/>
<path d="M23.5 34C25.9723 34 28.389 33.2669 30.4446 31.8934C32.5002 30.5199 34.1024 28.5676 35.0485 26.2835C35.9946 23.9995 36.2421 21.4861 35.7598 19.0614C35.2775 16.6366 34.087 14.4093 32.3388 12.6612C30.5907 10.913 28.3634 9.7225 25.9386 9.24019C23.5139 8.75787 21.0005 9.00542 18.7165 9.95151C16.4324 10.8976 14.4801 12.4998 13.1066 14.5554C11.7331 16.611 11 19.0277 11 21.5C11.0038 24.814 12.322 27.9913 14.6653 30.3347C17.0087 32.678 20.186 33.9962 23.5 34ZM23.5 10.7857C25.6191 10.7857 27.6906 11.4141 29.4525 12.5914C31.2145 13.7687 32.5878 15.442 33.3987 17.3998C34.2096 19.3576 34.4218 21.5119 34.0084 23.5903C33.595 25.6686 32.5746 27.5777 31.0761 29.0761C29.5777 30.5746 27.6686 31.595 25.5902 32.0084C23.5119 32.4218 21.3576 32.2096 19.3998 31.3987C17.442 30.5878 15.7687 29.2145 14.5914 27.4525C13.4141 25.6906 12.7857 23.6191 12.7857 21.5C12.789 18.6594 13.9189 15.9361 15.9275 13.9275C17.9361 11.9189 20.6594 10.789 23.5 10.7857Z" fill="#295554"/>
</svg>
