<svg width="93" height="93" viewBox="0 0 93 93" fill="none" xmlns="http://www.w3.org/2000/svg">
<path d="M53.997 13.9765C53.9523 13.1493 53.2454 12.515 52.4182 12.5597C51.591 12.6045 50.9567 13.3114 51.0014 14.1386L53.997 13.9765ZM49.5001 51.0575L48.034 50.7405L49.5001 51.0575ZM32.5068 78.9153C32.4282 79.74 33.0331 80.4722 33.8578 80.5508L47.297 81.8306C48.1217 81.9091 48.8539 81.3042 48.9324 80.4795C49.011 79.6548 48.4061 78.9226 47.5814 78.8441L35.6354 77.7065L36.773 65.7605C36.8516 64.9358 36.2467 64.2036 35.422 64.1251C34.5973 64.0466 33.8651 64.6514 33.7865 65.4761L32.5068 78.9153ZM52.4992 14.0575C51.0014 14.1386 51.0014 14.1385 51.0014 14.1384C51.0014 14.1385 51.0014 14.1385 51.0014 14.1387C51.0014 14.139 51.0015 14.1395 51.0015 14.1404C51.0016 14.1421 51.0018 14.145 51.002 14.1489C51.0024 14.1568 51.003 14.1691 51.0038 14.1858C51.0055 14.2192 51.008 14.2701 51.011 14.3378C51.0172 14.4734 51.0258 14.6765 51.0354 14.9427C51.0546 15.4751 51.0778 16.2597 51.0933 17.2605C51.1244 19.2623 51.1246 22.1269 51.0008 25.5661C50.7529 32.452 50.009 41.6069 48.034 50.7405L50.9662 51.3745C52.9915 42.0082 53.7472 32.6631 53.9988 25.674C54.1247 22.1757 54.1247 19.2591 54.093 17.214C54.0771 16.1913 54.0534 15.386 54.0335 14.8345C54.0235 14.5587 54.0145 14.3463 54.008 14.2018C54.0047 14.1295 54.002 14.0743 54.0001 14.0365C53.9992 14.0177 53.9984 14.0032 53.9979 13.9931C53.9977 13.9881 53.9975 13.9842 53.9973 13.9814C53.9972 13.9801 53.9972 13.9789 53.9971 13.9781C53.9971 13.9777 53.9971 13.9773 53.9971 13.9771C53.9971 13.9768 53.997 13.9765 52.4992 14.0575ZM48.034 50.7405C46.0859 59.7496 42.3131 66.5624 39.0326 71.1186C37.3926 73.3964 35.878 75.1069 34.781 76.2414C34.2326 76.8086 33.7892 77.2312 33.4874 77.5083C33.3366 77.6468 33.2212 77.7489 33.1458 77.8145C33.1081 77.8472 33.0805 77.8708 33.0634 77.8853C33.0549 77.8925 33.049 77.8974 33.0459 77.9001C33.0443 77.9014 33.0434 77.9021 33.0432 77.9023C33.0431 77.9024 33.0432 77.9023 33.0434 77.9021C33.0435 77.902 33.0438 77.9018 33.0439 77.9017C33.0443 77.9014 33.0447 77.9011 34 79.0575C34.9553 80.214 34.9558 80.2136 34.9564 80.2131C34.9566 80.2129 34.9572 80.2125 34.9576 80.2121C34.9586 80.2113 34.9597 80.2104 34.961 80.2093C34.9636 80.2071 34.9669 80.2044 34.9708 80.2011C34.9788 80.1944 34.9894 80.1855 35.0028 80.1741C35.0295 80.1515 35.0669 80.1195 35.1144 80.0782C35.2095 79.9955 35.3451 79.8754 35.5165 79.7181C35.8592 79.4034 36.3454 78.9393 36.9377 78.3267C38.1219 77.1019 39.7323 75.2812 41.4672 72.8715C44.9368 68.0526 48.914 60.8654 50.9662 51.3745L48.034 50.7405Z" fill="#D77A61"/>
</svg>
