<svg width="26" height="22" viewBox="0 0 26 22" fill="none" xmlns="http://www.w3.org/2000/svg">
<path fill-rule="evenodd" clip-rule="evenodd" d="M8.35714 0.785645C7.43786 0.785645 6.71729 1.34464 6.27157 2.01507C5.82029 2.69107 5.57143 3.57322 5.57143 4.49993C5.57143 5.4285 5.82029 6.30879 6.27157 6.98479C6.71729 7.65336 7.43786 8.21422 8.35714 8.21422C9.27643 8.21422 9.997 7.65522 10.4427 6.98479C10.894 6.30879 11.1429 5.42664 11.1429 4.49993C11.1429 3.57136 10.894 2.69107 10.4427 2.01507C9.997 1.3465 9.27643 0.785645 8.35714 0.785645ZM17.6429 0.785645C16.7236 0.785645 16.003 1.34464 15.5573 2.01507C15.106 2.69107 14.8571 3.57322 14.8571 4.49993C14.8571 5.4285 15.106 6.30879 15.5573 6.98479C16.003 7.65336 16.7236 8.21422 17.6429 8.21422C18.5621 8.21422 19.2827 7.65522 19.7284 6.98479C20.1797 6.30879 20.4286 5.42664 20.4286 4.49993C20.4286 3.57136 20.1797 2.69107 19.7284 2.01507C19.2827 1.3465 18.5621 0.785645 17.6429 0.785645ZM2.78571 9.14279C1.86643 9.14279 1.14586 9.70179 0.700143 10.3722C0.248857 11.0482 0 11.9304 0 12.8571C0 13.7856 0.248857 14.6659 0.700143 15.3419C1.14586 16.0105 1.86643 16.5714 2.78571 16.5714C3.705 16.5714 4.42557 16.0124 4.87129 15.3419C5.32257 14.6659 5.57143 13.7838 5.57143 12.8571C5.57143 11.9285 5.32257 11.0482 4.87129 10.3722C4.42557 9.70364 3.705 9.14279 2.78571 9.14279ZM13 9.14279C10.7714 9.14279 9.12043 10.3388 8.06557 11.8226C7.02371 13.2842 6.5 15.0986 6.5 16.5714C6.5 18.2874 7.53071 19.4796 8.79543 20.1965C10.0397 20.9022 11.5997 21.2142 13 21.2142C14.3984 21.2142 15.9603 20.9041 17.2046 20.1965C18.4674 19.4796 19.5 18.2874 19.5 16.5714C19.5 15.0986 18.9763 13.2842 17.9344 11.8226C16.8814 10.3369 15.2304 9.14279 13 9.14279ZM23.2143 9.14279C22.295 9.14279 21.5744 9.70179 21.1287 10.3722C20.6774 11.0482 20.4286 11.9304 20.4286 12.8571C20.4286 13.7856 20.6774 14.6659 21.1287 15.3419C21.5744 16.0105 22.295 16.5714 23.2143 16.5714C24.1336 16.5714 24.8541 16.0124 25.2999 15.3419C25.7511 14.6659 26 13.7838 26 12.8571C26 11.9285 25.7511 11.0482 25.2999 10.3722C24.8541 9.70364 24.1336 9.14279 23.2143 9.14279Z" fill="white"/>
</svg>
