<svg width="26" height="21" viewBox="0 0 26 21" fill="none" xmlns="http://www.w3.org/2000/svg">
<path fill-rule="evenodd" clip-rule="evenodd" d="M8.35714 0.477722C7.43786 0.477722 6.71729 1.02756 6.27157 1.687C5.82029 2.35191 5.57143 3.2196 5.57143 4.13112C5.57143 5.04447 5.82029 5.91032 6.27157 6.57524C6.71729 7.23285 7.43786 7.78451 8.35714 7.78451C9.27643 7.78451 9.997 7.23468 10.4427 6.57524C10.894 5.91032 11.1429 5.04264 11.1429 4.13112C11.1429 3.21777 10.894 2.35191 10.4427 1.687C9.997 1.02938 9.27643 0.477722 8.35714 0.477722ZM17.6429 0.477722C16.7236 0.477722 16.003 1.02756 15.5573 1.687C15.106 2.35191 14.8571 3.2196 14.8571 4.13112C14.8571 5.04447 15.106 5.91032 15.5573 6.57524C16.003 7.23285 16.7236 7.78451 17.6429 7.78451C18.5621 7.78451 19.2827 7.23468 19.7284 6.57524C20.1797 5.91032 20.4286 5.04264 20.4286 4.13112C20.4286 3.21777 20.1797 2.35191 19.7284 1.687C19.2827 1.02938 18.5621 0.477722 17.6429 0.477722ZM2.78571 8.69786C1.86643 8.69786 1.14586 9.2477 0.700143 9.90714C0.248857 10.5721 0 11.4397 0 12.3513C0 13.2646 0.248857 14.1305 0.700143 14.7954C1.14586 15.453 1.86643 16.0047 2.78571 16.0047C3.705 16.0047 4.42557 15.4548 4.87129 14.7954C5.32257 14.1305 5.57143 13.2628 5.57143 12.3513C5.57143 11.4379 5.32257 10.5721 4.87129 9.90714C4.42557 9.24953 3.705 8.69786 2.78571 8.69786ZM13 8.69786C10.7714 8.69786 9.12043 9.87426 8.06557 11.3338C7.02371 12.7714 6.5 14.5561 6.5 16.0047C6.5 17.6925 7.53071 18.8653 8.79543 19.5704C10.0397 20.2645 11.5997 20.5714 13 20.5714C14.3984 20.5714 15.9603 20.2663 17.2046 19.5704C18.4674 18.8653 19.5 17.6925 19.5 16.0047C19.5 14.5561 18.9763 12.7714 17.9344 11.3338C16.8814 9.87243 15.2304 8.69786 13 8.69786ZM23.2143 8.69786C22.295 8.69786 21.5744 9.2477 21.1287 9.90714C20.6774 10.5721 20.4286 11.4397 20.4286 12.3513C20.4286 13.2646 20.6774 14.1305 21.1287 14.7954C21.5744 15.453 22.295 16.0047 23.2143 16.0047C24.1336 16.0047 24.8541 15.4548 25.2999 14.7954C25.7511 14.1305 26 13.2628 26 12.3513C26 11.4379 25.7511 10.5721 25.2999 9.90714C24.8541 9.24953 24.1336 8.69786 23.2143 8.69786Z" fill="white"/>
</svg>
