<svg width="30" height="30" viewBox="0 0 30 30" fill="none" xmlns="http://www.w3.org/2000/svg">
<path d="M20.3582 7.77815L20.3587 7.77906C20.4347 7.91533 20.4945 8.02262 20.5468 8.11442C20.6377 8.1357 20.7434 8.1596 20.8753 8.18937L20.877 8.18974L21.5129 8.33374L21.513 8.33374C21.5655 8.34565 21.6181 8.35754 21.6707 8.36943C22.7629 8.61641 23.8482 8.86182 24.6812 9.19019C25.602 9.55313 26.8486 10.2594 27.3297 11.8048L27.3302 11.8064C27.802 13.3251 27.2056 14.6115 26.6854 15.4379C26.203 16.2042 25.4698 17.0613 24.7189 17.939C24.6859 17.9776 24.6529 18.0162 24.6198 18.0548L24.619 18.0558L24.1864 18.5612C24.1861 18.5616 24.1857 18.562 24.1854 18.5624C24.1853 18.5625 24.1852 18.5626 24.1851 18.5628C24.0706 18.6967 23.9843 18.7977 23.9114 18.8854C23.9213 19.0061 23.9349 19.1467 23.9531 19.3345C23.9531 19.335 23.9531 19.3354 23.9532 19.3359L24.0191 20.0115L24.0192 20.0135C24.0243 20.0662 24.0294 20.1189 24.0345 20.1715C24.1481 21.3436 24.2578 22.4761 24.2175 23.3818C24.1752 24.3322 23.9472 25.7723 22.6557 26.7519M20.3582 7.77815L22.6557 26.7519M20.3582 7.77815L20.0304 7.19042C20.0303 7.19033 20.0303 7.19024 20.0302 7.19015C20.0041 7.14328 19.978 7.09645 19.9519 7.04966C19.3868 6.03564 18.8355 5.04655 18.2883 4.33198C17.7144 3.58258 16.6723 2.5 15 2.5C13.3277 2.5 12.2856 3.58258 11.7117 4.33198C11.1645 5.04655 10.6132 6.03563 10.0481 7.04966C10.022 7.09644 9.9959 7.14328 9.96977 7.19015C9.96971 7.19024 9.96966 7.19033 9.96961 7.19042L9.64177 7.77815L9.64126 7.77906C9.56529 7.91539 9.50543 8.02272 9.45308 8.11454C9.36231 8.13584 9.25674 8.15974 9.12492 8.18954L9.12405 8.18974L8.48899 8.33353C8.48895 8.33354 8.48891 8.33355 8.48887 8.33355C8.4886 8.33362 8.48833 8.33368 8.48806 8.33374C8.43792 8.34507 8.38778 8.35639 8.33764 8.36771C7.24267 8.6149 6.15454 8.86054 5.31921 9.18985C4.39833 9.55287 3.15144 10.2594 2.67026 11.8048L2.66954 11.8071C2.19843 13.3254 2.79391 14.6114 3.31458 15.4386C3.79737 16.2057 4.53127 17.0631 5.28269 17.9409C5.31511 17.9788 5.34756 18.0167 5.38003 18.0547C5.38022 18.0549 5.3804 18.0551 5.38058 18.0553L5.81337 18.5619L5.81504 18.5639C5.92961 18.6977 6.01589 18.7985 6.08861 18.8858C6.07869 19.0068 6.06511 19.1477 6.04687 19.3362C6.04684 19.3366 6.04681 19.3369 6.04678 19.3372L5.98098 20.0111L5.98075 20.0135C5.97565 20.0662 5.97055 20.1189 5.96545 20.1716C5.85189 21.3435 5.74214 22.4763 5.78265 23.3823C5.8252 24.334 6.05405 25.7731 7.34493 26.7526L7.34572 26.7532C8.6774 27.7629 10.1479 27.541 11.0783 27.2743C11.9374 27.028 12.9527 26.5603 13.9757 26.0891C14.0239 26.0669 14.0721 26.0447 14.1203 26.0225C14.1207 26.0224 14.121 26.0222 14.1213 26.022L14.7163 25.7485L14.7201 25.7467C14.8302 25.6959 14.921 25.6541 15 25.6182C15.079 25.6541 15.1698 25.6959 15.2799 25.7467L15.2851 25.7492L15.8793 26.0219C15.8796 26.022 15.8798 26.0221 15.8801 26.0222M20.3582 7.77815L15.8801 26.0222M22.6557 26.7519C21.3242 27.7624 19.8537 27.5416 18.9219 27.2745C18.0636 27.0284 17.0494 26.5611 16.0285 26.0906C15.9791 26.0678 15.9296 26.045 15.8801 26.0222M22.6557 26.7519L15.8801 26.0222" fill="white" stroke="#61988E" stroke-width="5"/>
</svg>
